HIERARCHY
ROOT root
{
	OFFSET 0.000000 0.000000 0.000000
	CHANNELS 6 Xposition Yposition Zposition Zrotation Yrotation Xrotation
	JOINT lhip
	{
		OFFSET 0.058581 -0.082280 -0.017664
		CHANNELS 3 Zrotation Yrotation Xrotation
		JOINT lknee
		{
			OFFSET 0.043451 -0.386469 0.008037
			CHANNELS 3 Zrotation Yrotation Xrotation
			JOINT lankle
			{
				OFFSET -0.014790 -0.426874 -0.037428
				CHANNELS 3 Zrotation Yrotation Xrotation
				JOINT ltoe
				{
					OFFSET 0.041054 -0.060286 0.122042
					CHANNELS 3 Zrotation Yrotation Xrotation
					End Site
					{
						OFFSET 0.000000 0.000000 0.000000
					}
				}
			}
		}
	}
	JOINT rhip
	{
		OFFSET -0.060310 -0.090513 -0.013543
		CHANNELS 3 Zrotation Yrotation Xrotation
		JOINT rknee
		{
			OFFSET -0.043257 -0.383688 -0.004843
			CHANNELS 3 Zrotation Yrotation Xrotation
			JOINT rankle
			{
				OFFSET 0.019056 -0.420046 -0.034562
				CHANNELS 3 Zrotation Yrotation Xrotation
				JOINT rtoe
				{
					OFFSET -0.034840 -0.062106 0.130323
					CHANNELS 3 Zrotation Yrotation Xrotation
					End Site
					{
						OFFSET 0.000000 0.000000 0.000000
					}
				}
			}
		}
	}
	JOINT lowerback
	{
		OFFSET 0.004439 0.124404 -0.038385
		CHANNELS 3 Zrotation Yrotation Xrotation
		JOINT upperback
		{
			OFFSET 0.004488 0.137956 0.026820
			CHANNELS 3 Zrotation Yrotation Xrotation
			JOINT chest
			{
				OFFSET -0.002265 0.056032 0.002855
				CHANNELS 3 Zrotation Yrotation Xrotation
				JOINT lowerneck
				{
					OFFSET -0.013390 0.211636 -0.033468
					CHANNELS 3 Zrotation Yrotation Xrotation
					JOINT upperneck
					{
						OFFSET 0.010113 0.088937 0.050410
						CHANNELS 3 Zrotation Yrotation Xrotation
						End Site
						{
							OFFSET 0.000000 0.000000 0.000000
						}
					}
				}
				JOINT lclavicle
				{
					OFFSET 0.071702 0.114000 -0.018898
					CHANNELS 3 Zrotation Yrotation Xrotation
					JOINT lshoulder
					{
						OFFSET 0.122921 0.045205 -0.019046
						CHANNELS 3 Zrotation Yrotation Xrotation
						JOINT lelbow
						{
							OFFSET 0.255332 -0.015649 -0.022946
							CHANNELS 3 Zrotation Yrotation Xrotation
							JOINT lwrist
							{
								OFFSET 0.265709 0.012698 -0.007375
								CHANNELS 3 Zrotation Yrotation Xrotation
								End Site
								{
									OFFSET 0.000000 0.000000 0.000000
								}
							}
						}
					}
				}
				JOINT rclavicle
				{
					OFFSET -0.082954 0.112472 -0.023707
					CHANNELS 3 Zrotation Yrotation Xrotation
					JOINT rshoulder
					{
						OFFSET -0.113228 0.046853 -0.008472
						CHANNELS 3 Zrotation Yrotation Xrotation
						JOINT relbow
						{
							OFFSET -0.260127 -0.014369 -0.031269
							CHANNELS 3 Zrotation Yrotation Xrotation
							JOINT rwrist
							{
								OFFSET -0.269108 0.006794 -0.006027
								CHANNELS 3 Zrotation Yrotation Xrotation
								End Site
								{
									OFFSET 0.000000 0.000000 0.000000
								}
							}
						}
					}
				}
			}
		}
	}
}
MOTION
Frames: 16
Frame Time: 0.033333
-2.158032 0.707162 0.995833 96.763306 -2.540656 90.338229 -0.719896 -2.854241 -9.799862 -6.814766 -11.064071 15.321970 2.633274 14.337833 -12.076696 0.000000 -0.000000 0.000000 -0.912652 -9.025732 -10.206569 -4.117628 -15.417722 19.883062 -6.060390 -27.034847 -10.051762 0.000000 -0.000000 0.000000 -1.860242 2.881499 8.396211 0.327599 -1.104238 1.466154 0.290792 1.752566 1.371310 0.975972 -9.270980 -9.050439 2.095162 -8.516289 -6.093366 -25.448631 -2.865304 -2.186783 -54.216281 -7.391484 12.704519 8.798695 -16.092964 -10.993529 -0.726586 -6.267112 7.813255 24.993555 9.583102 -0.090626 55.781157 -1.604520 11.219920 -8.216714 19.125971 6.039941 -4.172428 3.232306 9.662064 
-2.162109 0.714875 0.996537 99.085122 -2.674098 90.436608 -1.636293 -3.631792 -9.931936 -6.671098 -12.290868 14.572795 3.230174 14.071711 -11.697697 0.000000 -0.000000 0.000000 -1.348514 -9.496111 -10.691238 -4.371730 -15.679463 20.614196 -5.969589 -27.606081 -11.324966 0.000000 -0.000000 0.000000 -1.673059 2.717896 8.467977 0.439862 -1.603096 1.266412 0.210633 1.834191 1.501834 0.643412 -10.905139 -8.893383 2.714305 -8.758181 -5.471579 -25.244147 -3.225073 -1.702863 -54.105027 -7.472965 13.258233 7.153472 -17.237713 -8.120234 -2.305764 -5.175432 8.701720 25.118958 9.814671 -0.230233 55.695181 -1.152651 11.041222 -7.634527 21.674480 5.719663 -2.721673 2.744918 9.615952 
-2.165391 0.721160 0.996565 100.553843 -2.559011 90.723240 -2.279624 -4.083505 -9.912834 -5.916470 -13.013182 13.383556 3.460702 13.615547 -11.164475 0.000000 -0.000000 0.000000 -1.314556 -8.844652 -11.345612 -3.627243 -14.296150 20.931604 -4.643389 -26.235476 -13.935039 0.000000 -0.000000 0.000000 -1.578377 2.885720 7.451909 0.890720 -1.783862 2.414357 0.230734 1.595308 1.218874 0.015489 -12.386789 -8.166649 3.432854 -8.799140 -5.419354 -25.601786 -3.467130 -1.530548 -53.621458 -7.554504 14.228481 4.858852 -18.220363 -5.498566 -4.125784 -4.341076 8.871608 25.377247 9.765516 -0.764663 54.966460 -0.466489 11.390342 -6.963214 24.764829 4.020608 -2.716300 3.679312 7.458738 
-2.165783 0.725628 0.996843 100.773641 -2.488320 90.247559 -2.822112 -4.338584 -8.888800 -5.374183 -13.362714 12.508471 3.746295 13.857902 -11.000207 0.000000 -0.000000 0.000000 -1.132289 -6.729839 -11.321921 -2.520402 -11.297665 21.826134 -3.460533 -24.264003 -15.518289 0.000000 -0.000000 0.000000 -1.535845 2.560209 7.337226 0.999237 -1.719583 3.158032 0.066278 1.809767 0.960864 -0.415497 -12.947324 -7.613984 3.813255 -9.112203 -5.110494 -25.842557 -3.333328 -1.750609 -53.089249 -6.992241 15.074583 3.364360 -18.746302 -3.075039 -3.405883 -5.386824 8.438117 26.146274 10.229748 -0.665726 54.372888 0.806752 12.083674 -6.586917 27.641117 2.046297 -4.602142 5.523038 4.540128 
-2.166547 0.728240 0.997458 100.926996 -2.329458 89.674186 -3.146733 -4.846301 -8.182210 -5.113302 -13.537488 12.485189 4.018526 14.075765 -11.337676 0.000000 -0.000000 0.000000 -0.534548 -4.059229 -11.144826 -1.245363 -8.136561 22.859529 -1.764839 -21.693452 -17.045908 0.000000 -0.000000 0.000000 -1.489418 1.964174 7.928506 1.036752 -1.537121 2.610697 -0.079258 2.066976 1.089058 -0.934415 -13.618340 -6.891062 4.452181 -9.630077 -4.936109 -25.799026 -3.061069 -2.060644 -53.584168 -6.597009 15.854423 3.627305 -18.161144 -1.408044 -2.828663 -6.261171 8.215209 26.622929 10.326008 -0.615163 54.415844 2.476075 12.385731 -6.842068 30.500166 0.783317 -5.294904 6.736091 2.680088 
-2.167019 0.730092 0.997219 101.146401 -2.342616 89.427758 -3.345604 -5.653991 -7.995468 -5.031259 -12.952775 12.729675 4.506312 13.834494 -11.467405 0.000000 -0.000000 0.000000 -0.007201 -1.945362 -10.741184 -0.210197 -4.955109 22.541109 -0.694324 -18.666925 -16.861818 0.000000 -0.000000 0.000000 -1.602450 1.912738 7.574824 1.101227 -1.613638 2.639624 -0.326933 2.043400 1.270612 -1.001000 -14.685880 -6.377941 4.849042 -10.901151 -4.760609 -25.235906 -2.697612 -2.528678 -55.152615 -6.719897 16.081860 5.173572 -17.203939 -2.268734 -4.851480 -5.443087 8.245424 26.480636 10.117057 -0.986689 55.297532 3.870214 12.967687 -7.656404 33.509212 0.404821 -4.092800 6.433286 3.121617 
-2.166486 0.731363 0.996142 101.367644 -2.782995 89.298228 -3.834192 -5.912488 -7.974894 -5.086530 -12.173719 13.021080 4.622624 13.395063 -11.990300 0.000000 -0.000000 0.000000 0.101776 -1.571298 -10.189705 -1.153181 -3.901226 21.573998 -1.359197 -18.833316 -14.982020 0.000000 -0.000000 0.000000 -1.904655 1.955233 7.272611 0.777610 -1.834593 2.491548 -0.692120 1.980381 1.157071 -0.673973 -15.914009 -6.343117 4.773056 -12.162832 -4.155711 -25.276201 -2.434709 -2.896407 -55.775502 -6.345624 15.977196 6.999904 -16.872016 -4.330824 -6.616641 -4.496761 7.553324 26.442781 10.286115 -1.435360 55.998104 4.308261 13.900518 -8.412441 36.524141 0.498686 -2.780827 6.161940 2.935209 
-2.165407 0.731842 0.995222 101.136629 -3.065804 89.347975 -4.059602 -6.106467 -8.154685 -5.276774 -11.923911 13.473998 4.641817 13.332728 -12.133170 0.000000 -0.000000 0.000000 0.110645 -2.011835 -9.878973 -1.746780 -3.809599 20.824104 -2.519791 -18.579837 -13.932749 0.000000 -0.000000 0.000000 -1.968332 2.293036 6.357969 0.341683 -1.962528 2.948339 -1.015857 1.828023 0.869446 -0.644723 -17.020160 -6.332725 4.823252 -12.769327 -3.470739 -26.523198 -3.201579 -2.948379 -55.104324 -5.746496 15.332824 9.009719 -16.128495 -7.451602 -2.751679 -6.270936 6.509159 26.836460 11.278411 -1.333478 55.560301 4.718599 14.222780 -7.529185 38.788874 0.850668 -5.814101 7.664751 2.626492 
-2.164179 0.731965 0.995597 100.591204 -2.900225 89.230092 -3.851924 -5.955435 -8.055772 -5.238871 -11.457491 13.814843 4.359252 13.405635 -12.728506 0.000000 -0.000000 0.000000 0.352927 -2.153965 -8.985285 -1.981938 -3.831642 19.356376 -2.430146 -17.974082 -13.384885 0.000000 -0.000000 0.000000 -1.431849 2.396792 6.321825 -0.178421 -1.821917 2.523701 -1.379865 1.989633 0.604677 -0.476494 -17.537129 -6.225664 4.655305 -13.301374 -2.774947 -27.515807 -3.055898 -3.427835 -54.754791 -5.600792 15.061784 10.235600 -15.858157 -9.916530 2.617316 -8.576846 6.277297 26.992263 11.656618 -1.275995 55.223055 5.305965 14.609788 -5.570025 39.563088 2.636917 -8.826413 9.232176 2.714821 
-2.162407 0.731380 0.996800 99.571308 -2.794466 88.969593 -3.683034 -5.238002 -7.016598 -4.918753 -11.119825 12.769365 4.040568 13.109003 -12.728798 0.000000 -0.000000 0.000000 0.377666 -2.028884 -7.981926 -1.859556 -3.635705 18.200202 -1.913208 -17.255370 -13.398740 0.000000 -0.000000 0.000000 -1.364256 2.390075 6.315432 -0.476403 -1.274588 2.190642 -1.465607 2.306772 0.441849 -0.352650 -17.424401 -5.950246 4.562062 -13.528660 -2.511288 -27.595381 -2.951487 -3.894446 -55.580726 -5.436773 15.511637 11.677897 -16.270805 -10.902798 9.188614 -11.339654 5.333179 26.889316 12.126223 -1.232648 55.104799 6.225037 15.173757 -4.443494 38.346643 3.717564 -13.653337 11.618677 2.240569 
-2.159739 0.730714 0.997953 98.986257 -2.849432 88.997014 -3.832150 -4.926633 -6.126561 -4.248762 -10.960764 11.507305 3.813387 12.813586 -12.382810 0.000000 -0.000000 0.000000 0.292999 -2.233691 -7.350014 -1.705748 -3.174442 17.173767 -1.564343 -16.825253 -13.119984 0.000000 -0.000000 0.000000 -1.728737 2.790599 5.381229 -0.342632 -1.219444 2.606529 -1.494168 2.250499 0.239699 -0.292731 -17.468668 -5.796596 4.413282 -13.323269 -1.960365 -27.066893 -2.572329 -3.822460 -56.311541 -5.608601 15.745058 11.875578 -18.615069 -11.827910 12.110784 -11.642726 3.401066 26.592624 12.208811 -1.127774 55.170536 7.016401 15.812184 -4.020754 37.106020 4.346714 -17.391259 13.303578 3.173129 
-2.157381 0.729330 0.999309 98.394311 -2.785242 89.171732 -3.687682 -4.713780 -5.519283 -3.806442 -10.785391 10.423083 3.537243 12.674894 -12.271198 0.000000 -0.000000 0.000000 0.645976 -2.078958 -6.863553 -1.995017 -3.031929 16.080538 -1.332370 -16.604828 -12.707428 0.000000 -0.000000 0.000000 -2.100263 2.779885 4.752998 -0.137238 -1.151129 2.724338 -1.492578 2.291816 -0.199616 -0.053952 -16.909936 -5.816805 4.143634 -13.352693 -1.464133 -26.644635 -1.776322 -3.928574 -56.379168 -5.709102 16.532771 11.503082 -21.546568 -10.484192 12.242355 -12.111080 3.292911 26.635472 11.973252 -0.803436 55.220887 7.506653 16.713144 -4.606266 36.110815 4.942201 -19.894009 13.934094 3.895155 
-2.154294 0.728196 1.000241 98.030559 -2.674825 89.155568 -3.566296 -4.388833 -4.918448 -3.470755 -10.938048 9.862165 3.397857 12.781221 -12.212310 0.000000 -0.000000 0.000000 1.058738 -2.077752 -5.930666 -2.286633 -2.797846 14.691644 -1.254757 -16.530768 -12.375042 0.000000 -0.000000 0.000000 -2.432806 2.675126 4.087338 0.081217 -1.246357 3.305089 -1.474085 2.386319 -0.787889 0.047291 -16.473893 -5.775710 3.985749 -13.352170 -1.222488 -26.378410 -1.238942 -3.884374 -56.332281 -6.339410 17.113958 11.241400 -23.609116 -9.477985 14.246036 -12.627768 3.472135 26.755276 11.725366 -0.596262 55.286965 7.904685 17.254734 -5.453774 34.132723 4.315813 -22.900152 14.420179 3.566211 
-2.151375 0.727358 1.000436 97.829632 -2.707352 89.092969 -3.542547 -4.297780 -4.434762 -3.333368 -10.970737 9.474338 3.480834 12.834030 -11.827907 0.000000 -0.000000 0.000000 1.089542 -2.066286 -5.339501 -2.275874 -2.743587 14.042498 -1.368428 -16.495939 -12.062868 0.000000 -0.000000 0.000000 -2.796169 2.482900 3.742199 0.239378 -1.426691 3.370222 -1.407747 2.262702 -0.938341 -0.155539 -16.399115 -5.753980 4.132350 -12.954958 -1.032573 -26.360161 -1.470563 -3.718085 -56.168063 -6.843832 17.218413 11.628845 -24.458165 -10.251578 17.073790 -13.315584 2.784331 26.867034 11.602153 -0.640399 55.246569 7.772831 17.205633 -5.718138 32.949853 3.588813 -24.038572 15.121227 3.345228 
-2.142740 0.727337 1.001590 96.277305 -3.269291 88.547519 -4.258077 -2.776645 -1.877668 -2.797841 -11.296931 7.296743 3.384330 12.810634 -11.159524 0.000000 -0.000000 0.000000 0.214699 -2.643685 -3.778668 -2.003836 -1.924679 13.379187 -0.652840 -15.185306 -12.604327 0.000000 -0.000000 0.000000 -3.470521 2.868054 2.210088 0.181745 -0.976416 5.262958 -1.497366 2.231676 -1.640351 -0.687500 -16.325901 -4.674256 4.539270 -12.630320 -1.698287 -26.265011 -1.705131 -3.171532 -55.610935 -7.191108 16.750890 11.550557 -25.104547 -11.565981 17.548629 -13.580117 3.072944 27.310737 11.326187 0.354784 54.939035 7.990996 16.284896 -5.639377 31.718372 2.676281 -24.440208 16.021160 5.258449 
-2.146558 0.725976 0.999942 98.255501 -2.553391 89.094868 -3.173149 -4.286234 -4.437244 -3.492883 -11.101666 9.993647 3.174070 12.333940 -11.925103 0.000000 -0.000000 0.000000 1.189985 -2.468244 -4.775362 -2.036882 -2.883199 13.698038 -1.460763 -16.533309 -11.960525 0.000000 -0.000000 0.000000 -2.635296 2.069733 3.826562 0.114866 -2.411819 2.075919 -1.390649 1.829072 -0.484251 -0.697999 -16.096401 -5.661140 4.301139 -12.807952 -1.113270 -26.100346 -2.291016 -3.314991 -55.794099 -7.828193 16.438905 12.315797 -24.619591 -11.212753 17.016280 -14.107950 1.598136 26.501030 11.178036 -0.594988 55.723933 6.664300 15.730209 -6.031766 31.482723 4.014867 -22.862020 15.208359 5.327917 
